<mxfile host="app.diagrams.net" modified="2023-02-04T11:26:00.064Z" agent="5.0 (Windows NT 10.0; Win64; x64) AppleWebKit/537.36 (KHTML, like Gecko) Chrome/109.0.0.0 Safari/537.36" version="20.7.4" etag="-AjdAF8MOclGPtnq7gSF" type="github">
  <diagram id="OKaWwvOySp8NF5x1aiYE" name="Page-1">
    <mxGraphModel dx="2261" dy="1925" grid="1" gridSize="10" guides="1" tooltips="1" connect="1" arrows="1" fold="1" page="1" pageScale="1" pageWidth="827" pageHeight="1169" math="0" shadow="0">
      <root>
        <mxCell id="0" />
        <mxCell id="1" parent="0" />
        <mxCell id="U4aMlQAWfuHBLr52iHQo-1" value="«Node/FSM»&lt;br style=&quot;font-size: 14px;&quot;&gt;&lt;b style=&quot;font-size: 14px;&quot;&gt;FinateState_Machine&lt;/b&gt;" style="html=1;dropTarget=0;fontSize=14;" vertex="1" parent="1">
          <mxGeometry x="330" y="260" width="180" height="90" as="geometry" />
        </mxCell>
        <mxCell id="U4aMlQAWfuHBLr52iHQo-2" value="" style="shape=module;jettyWidth=8;jettyHeight=4;" vertex="1" parent="U4aMlQAWfuHBLr52iHQo-1">
          <mxGeometry x="1" width="20" height="20" relative="1" as="geometry">
            <mxPoint x="-27" y="7" as="offset" />
          </mxGeometry>
        </mxCell>
        <mxCell id="U4aMlQAWfuHBLr52iHQo-32" value="/state/battery_low&amp;nbsp; {Boolean: data}" style="text;html=1;align=center;verticalAlign=middle;resizable=0;points=[];autosize=1;strokeColor=none;fillColor=none;fontSize=14;spacing=2;" vertex="1" parent="1">
          <mxGeometry x="294" y="90" width="240" height="30" as="geometry" />
        </mxCell>
        <mxCell id="U4aMlQAWfuHBLr52iHQo-31" value="query result" style="text;html=1;align=center;verticalAlign=middle;resizable=0;points=[];autosize=1;strokeColor=none;fillColor=none;fontSize=14;rotation=-90;" vertex="1" parent="1">
          <mxGeometry x="434" y="490" width="100" height="30" as="geometry" />
        </mxCell>
        <mxCell id="U4aMlQAWfuHBLr52iHQo-28" value="query" style="text;html=1;align=center;verticalAlign=middle;resizable=0;points=[];autosize=1;strokeColor=none;fillColor=none;rotation=-90;fontStyle=0;fontSize=14;" vertex="1" parent="1">
          <mxGeometry x="330" y="400" width="60" height="30" as="geometry" />
        </mxCell>
        <mxCell id="U4aMlQAWfuHBLr52iHQo-37" value="«Interface Server»&lt;br&gt;&lt;b&gt;aRMOR&lt;/b&gt;" style="html=1;dropTarget=0;fontSize=14;" vertex="1" parent="1">
          <mxGeometry x="330" y="560" width="180" height="90" as="geometry" />
        </mxCell>
        <mxCell id="U4aMlQAWfuHBLr52iHQo-38" value="" style="shape=module;jettyWidth=8;jettyHeight=4;fontSize=14;" vertex="1" parent="U4aMlQAWfuHBLr52iHQo-37">
          <mxGeometry x="1" width="20" height="20" relative="1" as="geometry">
            <mxPoint x="-27" y="7" as="offset" />
          </mxGeometry>
        </mxCell>
        <mxCell id="U4aMlQAWfuHBLr52iHQo-46" value="" style="rounded=0;orthogonalLoop=1;jettySize=auto;html=1;endArrow=none;endFill=0;sketch=0;sourcePerimeterSpacing=0;targetPerimeterSpacing=0;strokeWidth=1;fontSize=14;endSize=6;exitX=0.25;exitY=1;exitDx=0;exitDy=0;" edge="1" target="U4aMlQAWfuHBLr52iHQo-48" parent="1" source="U4aMlQAWfuHBLr52iHQo-1">
          <mxGeometry relative="1" as="geometry">
            <mxPoint x="360" y="455" as="sourcePoint" />
          </mxGeometry>
        </mxCell>
        <mxCell id="U4aMlQAWfuHBLr52iHQo-47" value="" style="rounded=0;orthogonalLoop=1;jettySize=auto;html=1;endArrow=halfCircle;endFill=0;entryX=0.5;entryY=0.5;endSize=6;strokeWidth=1;sketch=0;fontSize=14;exitX=0.25;exitY=0;exitDx=0;exitDy=0;" edge="1" target="U4aMlQAWfuHBLr52iHQo-48" parent="1" source="U4aMlQAWfuHBLr52iHQo-37">
          <mxGeometry relative="1" as="geometry">
            <mxPoint x="400" y="455" as="sourcePoint" />
          </mxGeometry>
        </mxCell>
        <mxCell id="U4aMlQAWfuHBLr52iHQo-48" value="" style="ellipse;whiteSpace=wrap;html=1;align=center;aspect=fixed;resizable=0;points=[];outlineConnect=0;sketch=0;fontSize=14;" vertex="1" parent="1">
          <mxGeometry x="370" y="450" width="10" height="10" as="geometry" />
        </mxCell>
        <mxCell id="U4aMlQAWfuHBLr52iHQo-49" value="" style="rounded=0;orthogonalLoop=1;jettySize=auto;html=1;endArrow=none;endFill=0;sketch=0;sourcePerimeterSpacing=0;targetPerimeterSpacing=0;strokeWidth=1;fontSize=14;endSize=6;exitX=0.75;exitY=0;exitDx=0;exitDy=0;" edge="1" target="U4aMlQAWfuHBLr52iHQo-51" parent="1" source="U4aMlQAWfuHBLr52iHQo-37">
          <mxGeometry relative="1" as="geometry">
            <mxPoint x="440" y="455" as="sourcePoint" />
          </mxGeometry>
        </mxCell>
        <mxCell id="U4aMlQAWfuHBLr52iHQo-50" value="" style="rounded=0;orthogonalLoop=1;jettySize=auto;html=1;endArrow=halfCircle;endFill=0;endSize=6;strokeWidth=1;sketch=0;fontSize=14;exitX=0.75;exitY=1;exitDx=0;exitDy=0;" edge="1" parent="1" source="U4aMlQAWfuHBLr52iHQo-1">
          <mxGeometry relative="1" as="geometry">
            <mxPoint x="480" y="455" as="sourcePoint" />
            <mxPoint x="465" y="455" as="targetPoint" />
          </mxGeometry>
        </mxCell>
        <mxCell id="U4aMlQAWfuHBLr52iHQo-51" value="" style="ellipse;whiteSpace=wrap;html=1;align=center;aspect=fixed;resizable=0;points=[];outlineConnect=0;sketch=0;fontSize=14;" vertex="1" parent="1">
          <mxGeometry x="460" y="450" width="10" height="10" as="geometry" />
        </mxCell>
        <mxCell id="U4aMlQAWfuHBLr52iHQo-54" value="«Node/Server»&lt;br&gt;&lt;b&gt;Robot-State&lt;/b&gt;" style="html=1;dropTarget=0;fontSize=14;" vertex="1" parent="1">
          <mxGeometry x="330" y="-10" width="180" height="90" as="geometry" />
        </mxCell>
        <mxCell id="U4aMlQAWfuHBLr52iHQo-55" value="" style="shape=module;jettyWidth=8;jettyHeight=4;fontSize=14;" vertex="1" parent="U4aMlQAWfuHBLr52iHQo-54">
          <mxGeometry x="1" width="20" height="20" relative="1" as="geometry">
            <mxPoint x="-27" y="7" as="offset" />
          </mxGeometry>
        </mxCell>
        <mxCell id="U4aMlQAWfuHBLr52iHQo-56" value="" style="rounded=0;orthogonalLoop=1;jettySize=auto;html=1;endArrow=none;endFill=0;sketch=0;sourcePerimeterSpacing=0;targetPerimeterSpacing=0;strokeWidth=1;fontSize=14;endSize=6;exitX=0.5;exitY=0;exitDx=0;exitDy=0;" edge="1" target="U4aMlQAWfuHBLr52iHQo-58" parent="1" source="U4aMlQAWfuHBLr52iHQo-1">
          <mxGeometry relative="1" as="geometry">
            <mxPoint x="400" y="115" as="sourcePoint" />
          </mxGeometry>
        </mxCell>
        <mxCell id="U4aMlQAWfuHBLr52iHQo-57" value="" style="rounded=0;orthogonalLoop=1;jettySize=auto;html=1;endArrow=halfCircle;endFill=0;entryX=0.5;entryY=0.5;endSize=6;strokeWidth=1;sketch=0;fontSize=14;exitX=0.5;exitY=1;exitDx=0;exitDy=0;" edge="1" target="U4aMlQAWfuHBLr52iHQo-58" parent="1" source="U4aMlQAWfuHBLr52iHQo-54">
          <mxGeometry relative="1" as="geometry">
            <mxPoint x="440" y="115" as="sourcePoint" />
          </mxGeometry>
        </mxCell>
        <mxCell id="U4aMlQAWfuHBLr52iHQo-58" value="" style="ellipse;whiteSpace=wrap;html=1;align=center;aspect=fixed;resizable=0;points=[];outlineConnect=0;sketch=0;fontSize=14;" vertex="1" parent="1">
          <mxGeometry x="415" y="160" width="10" height="10" as="geometry" />
        </mxCell>
        <mxCell id="U4aMlQAWfuHBLr52iHQo-60" value="«Action/Server»&lt;br&gt;&lt;b&gt;Motion/Controller&lt;/b&gt;" style="html=1;dropTarget=0;fontSize=14;" vertex="1" parent="1">
          <mxGeometry x="870" y="260" width="180" height="90" as="geometry" />
        </mxCell>
        <mxCell id="U4aMlQAWfuHBLr52iHQo-61" value="" style="shape=module;jettyWidth=8;jettyHeight=4;fontSize=14;" vertex="1" parent="U4aMlQAWfuHBLr52iHQo-60">
          <mxGeometry x="1" width="20" height="20" relative="1" as="geometry">
            <mxPoint x="-27" y="7" as="offset" />
          </mxGeometry>
        </mxCell>
        <mxCell id="U4aMlQAWfuHBLr52iHQo-62" value="«Action/Server»&lt;br&gt;&lt;b&gt;Motion/Planner&lt;br&gt;&lt;/b&gt;" style="html=1;dropTarget=0;fontSize=14;" vertex="1" parent="1">
          <mxGeometry x="-210" y="260" width="180" height="90" as="geometry" />
        </mxCell>
        <mxCell id="U4aMlQAWfuHBLr52iHQo-63" value="" style="shape=module;jettyWidth=8;jettyHeight=4;fontSize=14;" vertex="1" parent="U4aMlQAWfuHBLr52iHQo-62">
          <mxGeometry x="1" width="20" height="20" relative="1" as="geometry">
            <mxPoint x="-27" y="7" as="offset" />
          </mxGeometry>
        </mxCell>
        <mxCell id="U4aMlQAWfuHBLr52iHQo-67" value="" style="rounded=0;orthogonalLoop=1;jettySize=auto;html=1;endArrow=none;endFill=0;sketch=0;sourcePerimeterSpacing=0;targetPerimeterSpacing=0;strokeWidth=1;fontSize=14;endSize=6;exitX=1;exitY=0.25;exitDx=0;exitDy=0;" edge="1" target="U4aMlQAWfuHBLr52iHQo-69" parent="1" source="U4aMlQAWfuHBLr52iHQo-62">
          <mxGeometry relative="1" as="geometry">
            <mxPoint x="100" y="285" as="sourcePoint" />
          </mxGeometry>
        </mxCell>
        <mxCell id="U4aMlQAWfuHBLr52iHQo-68" value="" style="rounded=0;orthogonalLoop=1;jettySize=auto;html=1;endArrow=halfCircle;endFill=0;entryX=0.5;entryY=0.5;endSize=6;strokeWidth=1;sketch=0;fontSize=14;exitX=0;exitY=0.25;exitDx=0;exitDy=0;" edge="1" target="U4aMlQAWfuHBLr52iHQo-69" parent="1" source="U4aMlQAWfuHBLr52iHQo-1">
          <mxGeometry relative="1" as="geometry">
            <mxPoint x="140" y="285" as="sourcePoint" />
          </mxGeometry>
        </mxCell>
        <mxCell id="U4aMlQAWfuHBLr52iHQo-69" value="" style="ellipse;whiteSpace=wrap;html=1;align=center;aspect=fixed;resizable=0;points=[];outlineConnect=0;sketch=0;fontSize=14;" vertex="1" parent="1">
          <mxGeometry x="130" y="280" width="10" height="10" as="geometry" />
        </mxCell>
        <mxCell id="U4aMlQAWfuHBLr52iHQo-70" value="" style="rounded=0;orthogonalLoop=1;jettySize=auto;html=1;endArrow=none;endFill=0;sketch=0;sourcePerimeterSpacing=0;targetPerimeterSpacing=0;strokeWidth=1;fontSize=14;endSize=6;exitX=0;exitY=0.75;exitDx=0;exitDy=0;" edge="1" target="U4aMlQAWfuHBLr52iHQo-72" parent="1" source="U4aMlQAWfuHBLr52iHQo-1">
          <mxGeometry relative="1" as="geometry">
            <mxPoint x="115" y="335" as="sourcePoint" />
          </mxGeometry>
        </mxCell>
        <mxCell id="U4aMlQAWfuHBLr52iHQo-71" value="" style="rounded=0;orthogonalLoop=1;jettySize=auto;html=1;endArrow=halfCircle;endFill=0;entryX=0.5;entryY=0.5;endSize=6;strokeWidth=1;sketch=0;fontSize=14;exitX=1;exitY=0.75;exitDx=0;exitDy=0;" edge="1" target="U4aMlQAWfuHBLr52iHQo-72" parent="1" source="U4aMlQAWfuHBLr52iHQo-62">
          <mxGeometry relative="1" as="geometry">
            <mxPoint x="155" y="335" as="sourcePoint" />
          </mxGeometry>
        </mxCell>
        <mxCell id="U4aMlQAWfuHBLr52iHQo-72" value="" style="ellipse;whiteSpace=wrap;html=1;align=center;aspect=fixed;resizable=0;points=[];outlineConnect=0;sketch=0;fontSize=14;" vertex="1" parent="1">
          <mxGeometry x="130" y="320" width="10" height="10" as="geometry" />
        </mxCell>
        <mxCell id="U4aMlQAWfuHBLr52iHQo-73" value="" style="rounded=0;orthogonalLoop=1;jettySize=auto;html=1;endArrow=none;endFill=0;sketch=0;sourcePerimeterSpacing=0;targetPerimeterSpacing=0;strokeWidth=1;fontSize=14;endSize=6;exitX=1;exitY=0.25;exitDx=0;exitDy=0;" edge="1" target="U4aMlQAWfuHBLr52iHQo-75" parent="1" source="U4aMlQAWfuHBLr52iHQo-1">
          <mxGeometry relative="1" as="geometry">
            <mxPoint x="690" y="285" as="sourcePoint" />
          </mxGeometry>
        </mxCell>
        <mxCell id="U4aMlQAWfuHBLr52iHQo-74" value="" style="rounded=0;orthogonalLoop=1;jettySize=auto;html=1;endArrow=halfCircle;endFill=0;entryX=0.5;entryY=0.5;endSize=6;strokeWidth=1;sketch=0;fontSize=14;exitX=0;exitY=0.25;exitDx=0;exitDy=0;" edge="1" target="U4aMlQAWfuHBLr52iHQo-75" parent="1" source="U4aMlQAWfuHBLr52iHQo-60">
          <mxGeometry relative="1" as="geometry">
            <mxPoint x="730" y="285" as="sourcePoint" />
          </mxGeometry>
        </mxCell>
        <mxCell id="U4aMlQAWfuHBLr52iHQo-75" value="" style="ellipse;whiteSpace=wrap;html=1;align=center;aspect=fixed;resizable=0;points=[];outlineConnect=0;sketch=0;fontSize=14;" vertex="1" parent="1">
          <mxGeometry x="705" y="280" width="10" height="10" as="geometry" />
        </mxCell>
        <mxCell id="U4aMlQAWfuHBLr52iHQo-76" value="" style="rounded=0;orthogonalLoop=1;jettySize=auto;html=1;endArrow=none;endFill=0;sketch=0;sourcePerimeterSpacing=0;targetPerimeterSpacing=0;strokeWidth=1;fontSize=14;endSize=6;exitX=0;exitY=0.75;exitDx=0;exitDy=0;" edge="1" target="U4aMlQAWfuHBLr52iHQo-78" parent="1" source="U4aMlQAWfuHBLr52iHQo-60">
          <mxGeometry relative="1" as="geometry">
            <mxPoint x="705" y="335" as="sourcePoint" />
          </mxGeometry>
        </mxCell>
        <mxCell id="U4aMlQAWfuHBLr52iHQo-77" value="" style="rounded=0;orthogonalLoop=1;jettySize=auto;html=1;endArrow=halfCircle;endFill=0;entryX=0.5;entryY=0.5;endSize=6;strokeWidth=1;sketch=0;fontSize=14;exitX=1;exitY=0.75;exitDx=0;exitDy=0;" edge="1" target="U4aMlQAWfuHBLr52iHQo-78" parent="1" source="U4aMlQAWfuHBLr52iHQo-1">
          <mxGeometry relative="1" as="geometry">
            <mxPoint x="745" y="335" as="sourcePoint" />
          </mxGeometry>
        </mxCell>
        <mxCell id="U4aMlQAWfuHBLr52iHQo-78" value="" style="ellipse;whiteSpace=wrap;html=1;align=center;aspect=fixed;resizable=0;points=[];outlineConnect=0;sketch=0;fontSize=14;" vertex="1" parent="1">
          <mxGeometry x="715" y="320" width="10" height="10" as="geometry" />
        </mxCell>
        <mxCell id="U4aMlQAWfuHBLr52iHQo-79" value="/motion/controller/result" style="text;html=1;align=center;verticalAlign=middle;resizable=0;points=[];autosize=1;strokeColor=none;fillColor=none;fontSize=14;" vertex="1" parent="1">
          <mxGeometry x="625" y="335" width="170" height="30" as="geometry" />
        </mxCell>
        <mxCell id="U4aMlQAWfuHBLr52iHQo-80" value="Text" style="text;html=1;align=center;verticalAlign=middle;resizable=0;points=[];autosize=1;strokeColor=none;fillColor=none;fontSize=14;" vertex="1" parent="1">
          <mxGeometry x="675" y="205" width="50" height="30" as="geometry" />
        </mxCell>
      </root>
    </mxGraphModel>
  </diagram>
</mxfile>
